<svg width="4044" height="756" viewBox="0 0 4044 756" fill="none" xmlns="http://www.w3.org/2000/svg">
<path fill-rule="evenodd" clip-rule="evenodd" d="M4044 672L3875.5 644C3707 616 3370 560 3033 546C2696 532 2359 560 2022 476C1685 392 1296.25 302.545 959.246 330.545C622.246 358.545 337 504 168.5 630L-3.43323e-05 756V2.71797e-05H168.5C337 2.71797e-05 674 2.71797e-05 1011 2.71797e-05C1348 2.71797e-05 1685 2.71797e-05 2022 2.71797e-05C2359 2.71797e-05 2696 2.71797e-05 3033 2.71797e-05C3370 2.71797e-05 3707 2.71797e-05 3875.5 2.71797e-05H4044V672Z" fill="#2F802E" fill-opacity="0.48"/>
</svg>
